<svg width="24" height="24" viewBox="0 0 24 24" fill="none" xmlns="http://www.w3.org/2000/svg">
<path d="M0 24H24V5.99951H0V24ZM13.4999 20.2499H9.74983C9.33561 20.2499 8.9998 19.9141 8.9998 19.4999C8.9998 19.0857 9.33563 18.7501 9.74983 18.7501H13.4999C13.9141 18.7501 14.2499 19.0857 14.2499 19.4999C14.2499 19.9141 13.9141 20.2499 13.4999 20.2499ZM17.0324 20.0324C16.9596 20.0987 16.8759 20.1519 16.7849 20.1899C16.6949 20.2284 16.5979 20.249 16.4999 20.2499C16.1967 20.2487 15.9238 20.0658 15.8074 19.7856C15.6912 19.5057 15.7541 19.1832 15.9673 18.9673C16.0404 18.9013 16.1241 18.848 16.2148 18.8098C16.3975 18.7348 16.6022 18.7348 16.7849 18.8098C16.8758 18.848 16.9593 18.9013 17.0324 18.9673C17.3225 19.2632 17.3225 19.7367 17.0324 20.0324L17.0324 20.0324ZM20.2499 17.2499H16.4998C16.0856 17.2499 15.7498 16.9141 15.7498 16.4999C15.7498 16.0857 16.0856 15.7499 16.4998 15.7499H20.2499C20.6641 15.7499 20.9999 16.0857 20.9999 16.4999C20.9999 16.9141 20.6641 17.2499 20.2499 17.2499ZM20.9999 13.4999C20.9987 13.9136 20.6636 14.2487 20.2499 14.2499H8.99968C8.58545 14.2499 8.24964 13.9141 8.24964 13.4999C8.24964 13.0857 8.58547 12.7498 8.99968 12.7498H20.2499C20.6636 12.7511 20.9987 13.0862 20.9999 13.4999ZM3.74955 9.74983H11.2499C11.6641 9.74983 11.9997 10.0857 11.9997 10.4999C11.9997 10.9141 11.6641 11.2499 11.2499 11.2499H3.74955C3.33533 11.2499 2.99952 10.9141 2.99952 10.4999C2.99952 10.0857 3.33535 9.74983 3.74955 9.74983ZM3.74955 12.7498H5.99947C6.4137 12.7498 6.74951 13.0857 6.74951 13.4999C6.74951 13.9141 6.41367 14.2499 5.99947 14.2499H3.74955C3.33533 14.2499 2.99952 13.9141 2.99952 13.4999C2.99952 13.0857 3.33535 12.7498 3.74955 12.7498ZM3.74955 15.7499H13.4996C13.9138 15.7499 14.2496 16.0857 14.2496 16.4999C14.2496 16.9141 13.9138 17.2499 13.4996 17.2499H3.74955C3.33533 17.2499 2.99952 16.9141 2.99952 16.4999C2.99952 16.0857 3.33535 15.7499 3.74955 15.7499ZM3.74955 18.7499H6.74957V18.7501C7.1638 18.7501 7.4996 19.0857 7.4996 19.4999C7.4996 19.9141 7.16377 20.2499 6.74957 20.2499H3.74955C3.33533 20.2499 2.99952 19.9141 2.99952 19.4999C2.99952 19.0857 3.33535 18.7501 3.74955 18.7501V18.7499Z" fill="#FCFCFC"/>
<path d="M0 0V4.50008L24 4.49984V5.6708e-06L0 0ZM2.94 2.53497C2.9037 2.62667 2.85023 2.71062 2.78248 2.78249L2.66997 2.87249C2.62811 2.9008 2.58263 2.92355 2.53496 2.94C2.49238 2.96153 2.44689 2.97677 2.39995 2.985C2.35035 2.99323 2.30026 2.99831 2.24994 3C2.19961 2.99831 2.14953 2.99323 2.09992 2.985C2.05298 2.97677 2.0075 2.96153 1.96491 2.94C1.91701 2.92354 1.87176 2.9008 1.8299 2.87249L1.71739 2.78249C1.42729 2.48658 1.42729 2.01307 1.71739 1.71742C1.75296 1.68524 1.79071 1.65524 1.8299 1.62742C1.87176 1.59911 1.917 1.57637 1.96491 1.55992C2.0075 1.53838 2.05299 1.52314 2.09992 1.51491C2.19864 1.49241 2.30123 1.49241 2.39995 1.51491C2.44689 1.52314 2.49238 1.53838 2.53496 1.55992C2.58263 1.57637 2.62811 1.59911 2.66997 1.62742C2.70917 1.65524 2.74667 1.68525 2.78248 1.71742C2.84853 1.7905 2.90177 1.87421 2.94 1.96494C3.01984 2.14641 3.01984 2.35328 2.94 2.53499V2.53497ZM5.94001 2.53497C5.90372 2.62667 5.85025 2.71062 5.7825 2.78249C5.63878 2.91943 5.4486 2.9971 5.24995 3C5.19963 2.99831 5.14954 2.99323 5.09994 2.985C5.053 2.97678 5.00751 2.96153 4.96493 2.94C4.91726 2.92355 4.87178 2.9008 4.82992 2.8725L4.71741 2.78249C4.42755 2.48658 4.42755 2.01307 4.71741 1.71743C4.75322 1.68525 4.79072 1.65525 4.82992 1.62742C4.87178 1.59911 4.91726 1.57637 4.96493 1.55992C5.00751 1.53839 5.053 1.52314 5.09994 1.51492C5.19866 1.49241 5.30125 1.49241 5.39997 1.51492C5.4469 1.52314 5.49239 1.53839 5.53498 1.55992C5.58289 1.57637 5.62813 1.59912 5.66999 1.62742C5.70919 1.65525 5.74693 1.68525 5.7825 1.71743C5.84855 1.7905 5.90202 1.87421 5.94001 1.96495C6.0201 2.14666 6.0201 2.35328 5.94001 2.53499V2.53497ZM8.78251 2.78249C8.70968 2.84854 8.62597 2.90177 8.53499 2.94C8.44499 2.97847 8.34821 2.9988 8.24997 3.00001C8.05157 2.9971 7.86139 2.91943 7.71742 2.78249C7.64967 2.71063 7.59621 2.62667 7.56015 2.53497C7.48006 2.35326 7.48006 2.14639 7.56015 1.96493C7.59814 1.87395 7.65137 1.79048 7.71742 1.71741C7.75323 1.68523 7.79074 1.65523 7.83017 1.6274C7.87179 1.59909 7.91727 1.57635 7.96494 1.5599C8.0097 1.53716 8.05785 1.52191 8.10746 1.5149C8.35207 1.47062 8.60298 1.54587 8.78248 1.71741C9.07259 2.01332 9.07259 2.48659 8.78248 2.78247L8.78251 2.78249ZM21.7503 3H13.4999C13.0857 3 12.7498 2.66417 12.7498 2.24997C12.7498 1.83577 13.0857 1.49993 13.4999 1.49993H21.7503C22.1646 1.49993 22.5004 1.83577 22.5004 2.24997C22.5004 2.66417 22.1645 3 21.7503 3Z" fill="#FCFCFC"/>
</svg>
