<svg width="24" height="23" viewBox="0 0 24 23" fill="none" xmlns="http://www.w3.org/2000/svg">
<path d="M14.3658 13.16V13.3568C14.3658 14.8327 13.1604 16.0381 11.6845 16.0381C10.2086 16.0381 9.00322 14.8327 9.00322 13.3568V13.16L0.49203 11.5119C0.31977 11.4874 0.147712 11.4381 0 11.3397V18.7684C0 20.5888 1.47588 22.0647 3.29628 22.0647H20.0974C21.9178 22.0647 23.3937 20.5888 23.3937 18.7684L23.3935 11.3397C23.246 11.4135 23.0737 11.4626 22.9014 11.5119L14.3658 13.16Z" fill="#FCFCFC"/>
<path d="M20.1221 4.67378H17.1211V3.4438C17.1211 1.54974 15.5713 0 13.6773 0H9.69214C7.79808 0 6.24834 1.54974 6.24834 3.4438V4.67378H3.24729C1.45166 4.67378 0.000305176 6.12509 0.000305176 7.92077V9.29842C0.000305176 9.74114 0.32007 10.1102 0.738243 10.2086L9.00323 11.8074C9.02778 10.3561 10.2086 9.19999 11.6845 9.19999C13.1358 9.19999 14.3412 10.3561 14.3658 11.8074L22.6064 10.2086C23.0491 10.1102 23.3689 9.74133 23.3689 9.29842V7.89641C23.3689 6.12509 21.9176 4.67378 20.1219 4.67378H20.1221ZM8.78217 3.41928C8.78217 2.92725 9.20034 2.53362 9.66783 2.53362H13.6775C14.1695 2.53362 14.5631 2.95179 14.5631 3.41928V4.64926H8.78201L8.78217 3.41928Z" fill="#FCFCFC"/>
<path d="M13.0376 13.3569V11.881C13.0376 11.1431 12.4227 10.5281 11.6847 10.5281C10.9468 10.5281 10.3318 11.1431 10.3318 11.881V13.3569C10.3318 14.0948 10.9468 14.7098 11.6847 14.7098C12.4227 14.7098 13.0376 14.0948 13.0376 13.3569Z" fill="#FCFCFC"/>
</svg>
