<svg width="25" height="23" viewBox="0 0 25 23" fill="none" xmlns="http://www.w3.org/2000/svg">
<path fill-rule="evenodd" clip-rule="evenodd" d="M8.6673 3.63296H22.9928L14.4843 9.46594L8.69709 5.49775C8.91754 4.90786 8.91921 4.24089 8.66759 3.63275L8.6673 3.63296ZM4.92081 7.01849L7.00901 5.74711C7.62879 5.36978 7.83432 4.56466 7.47152 3.93653L5.58652 0.671261C5.39308 0.336112 5.10032 0.120622 4.72301 0.0354626C4.34568 -0.0497288 3.9887 0.0188403 3.67019 0.238255L0.232267 2.60528C-1.40443 8.37123 5.94982 20.8547 11.5897 22.2771L15.3586 20.4833C15.7079 20.3169 15.9458 20.0424 16.0607 19.673C16.1756 19.3036 16.1353 18.9425 15.9418 18.6073L14.0568 15.3422C13.6942 14.7137 12.8941 14.4895 12.2575 14.8375L10.1124 16.0103C7.99092 14.1236 5.49405 9.79856 4.92076 7.01824L4.92081 7.01849ZM24.0336 4.38302L14.8245 10.6963C14.6091 10.8432 14.3323 10.832 14.132 10.688L8.01816 6.49689C7.90242 6.6014 7.77547 6.69635 7.63771 6.78029L6.31708 7.58418C7.01085 9.82343 8.72771 12.7974 10.3204 14.5177L11.6772 13.7759C12.8896 13.1133 14.4134 13.5407 15.1045 14.7371L16.2735 16.7621H23.0831C23.6208 16.7621 24.0609 16.3222 24.0609 15.7843L24.0607 4.61035C24.0605 4.53222 24.0509 4.45618 24.0337 4.38304L24.0336 4.38302Z" fill="#FCFCFC"/>
</svg>
