<svg width="33" height="28" viewBox="0 0 33 28" fill="none" xmlns="http://www.w3.org/2000/svg">
<path d="M6.36037 17.1351C7.65264 14.9749 9.35064 14.0122 11.8661 14.0122C13.0852 14.0122 14.2875 14.3257 15.3425 14.9201C15.4078 14.9571 15.4813 14.9758 15.5561 14.9758C15.5565 14.9758 15.5565 14.9758 15.5572 14.9758L19.9038 14.967C20.9021 14.967 21.6708 15.2488 22.1867 15.8044C22.7793 16.4408 22.9273 17.311 22.9612 17.8124H15.1191C14.8789 17.8124 14.6841 18.0077 14.6841 18.2479C14.6841 18.4885 14.8789 18.6833 15.1191 18.6833H17.3388C17.5447 18.7199 18.9551 19.0108 19.4898 20.2303C19.5614 20.3935 19.7205 20.4911 19.8882 20.4911C19.9465 20.4911 20.0064 20.4797 20.0625 20.4541C20.2829 20.3576 20.3832 20.101 20.2871 19.881C20.0614 19.3655 19.7281 18.9773 19.3693 18.6833H23.4013C23.6289 18.6833 23.8177 18.5086 23.8356 18.2821C23.8413 18.2078 23.9656 16.4446 22.8312 15.2183C22.1433 14.4743 21.1584 14.0972 19.903 14.0972L15.6686 14.106C14.5083 13.4749 13.1962 13.1421 11.8666 13.1421C9.06776 13.1421 7.08913 14.2536 5.64429 16.6383L0.633434 21.4557C0.460354 21.6223 0.454974 21.8977 0.621263 22.0708C0.70665 22.1593 0.82067 22.2047 0.935074 22.2047C1.04371 22.2047 1.15242 22.1642 1.23665 22.083L6.28831 17.2259C6.31655 17.1988 6.34058 17.1683 6.36037 17.1351Z" fill="#171717"/>
<path d="M32.3697 11.3776C32.3442 11.3482 31.9602 10.9216 31.3375 10.5727C31.6246 10.2528 31.7879 10.0701 31.7879 10.0701C31.9351 9.90539 31.9358 9.6571 31.7898 9.49203C31.7474 9.44399 30.7328 8.31417 29.2765 8.23672C28.4266 8.19099 27.6144 8.51012 26.8644 9.182C26.0094 8.84916 24.7401 8.7313 23.4176 9.94126C23.4108 9.94734 23.4043 9.95343 23.3982 9.95996L22.4644 10.9266C21.6144 10.6513 20.4362 10.6337 19.2114 11.7544C19.2045 11.7601 19.1985 11.7662 19.1919 11.7731L18.8804 12.096C18.7134 12.2684 18.718 12.5444 18.8907 12.7111C18.975 12.7927 19.0841 12.8335 19.1931 12.8335C19.3071 12.8335 19.4204 12.7889 19.5062 12.7008L19.8082 12.3878C20.4309 11.8215 21.0845 11.5778 21.7579 11.6579L20.2932 13.1725C20.1262 13.3456 20.1312 13.6206 20.3039 13.7876C20.3886 13.8696 20.4973 13.9096 20.6063 13.9096C20.7203 13.9096 20.8344 13.8654 20.919 13.7769L24.0141 10.5746C24.7036 9.94773 25.4307 9.717 26.1807 9.88252L22.5502 13.6388C22.3833 13.812 22.3878 14.0872 22.5605 14.2547C22.6451 14.3363 22.7546 14.3763 22.8629 14.3763C22.9769 14.3763 23.091 14.3324 23.176 14.2436L27.4227 9.84972C27.9996 9.32504 28.6052 9.0749 29.2232 9.10577C29.9317 9.14088 30.5243 9.53399 30.8553 9.80661C30.7546 9.91833 30.6288 10.0587 30.482 10.2218C30.2845 10.1699 30.0759 10.1341 29.8559 10.1227C28.9915 10.0766 28.1659 10.4064 27.4056 11.102C27.3987 11.108 27.3926 11.1141 27.3865 11.1207L23.6592 14.9773C23.4922 15.15 23.4971 15.4257 23.6698 15.5927C23.8422 15.7597 24.1179 15.7547 24.285 15.582L28.0027 11.7353C28.5797 11.2106 29.1856 10.9605 29.8036 10.9913C30.5114 11.0268 31.1051 11.4195 31.4354 11.6926C27.5703 16.0086 21.5109 22.6157 20.5946 23.204C19.8896 23.204 19.0499 23.2021 18.1675 23.1998C16.1935 23.1953 13.956 23.19 12.5649 23.204C10.0384 23.2299 6.23248 26.9356 6.07151 27.0934C5.8999 27.2616 5.89728 27.5369 6.06543 27.7085C6.15081 27.7954 6.26374 27.8389 6.37623 27.8389C6.48602 27.8389 6.59626 27.7977 6.68088 27.7146C7.70738 26.7084 10.7666 24.0929 12.5741 24.0747C13.9594 24.0601 16.1943 24.0659 18.1661 24.0701C19.0854 24.0723 19.9582 24.0747 20.6816 24.0747C20.9775 24.0747 21.2837 24.0747 26.9298 17.9473C29.6592 14.9857 32.3425 11.9859 32.3696 11.9558C32.5155 11.7913 32.5159 11.5427 32.3697 11.3776Z" fill="#171717"/>
<path d="M15.3994 8.68286C15.4383 8.70573 15.4784 8.72706 15.518 8.74884C15.8273 8.91737 16.0504 9.03901 16.0504 9.90159V13.4744C16.0504 13.7147 16.2456 13.9095 16.4858 13.9095C16.7261 13.9095 16.9209 13.7147 16.9209 13.4744V9.90159C16.9209 8.6272 16.4542 8.26765 15.9345 7.98471C15.9006 7.96639 15.867 7.94807 15.8343 7.92905C14.1634 6.96661 13.3794 5.4928 13.5044 3.54966C13.5612 2.66005 13.8026 1.86422 13.9917 1.35862C14.4447 1.77922 15.2333 2.4381 16.4161 3.18627C18.1343 4.27337 17.4712 6.21888 17.271 6.70269C17.1994 6.7736 17.1326 6.84189 17.0716 6.90518C17.003 6.97532 16.939 7.04168 16.8822 7.09549C16.7075 7.26017 16.6995 7.53587 16.8642 7.71055C17.0294 7.88523 17.3046 7.89356 17.4793 7.72849C17.5499 7.66142 17.6208 7.58891 17.6955 7.51153C17.736 7.46996 17.7782 7.42691 17.8221 7.38303C17.8907 7.34601 17.9495 7.29034 17.9911 7.21905C18.5863 6.67067 19.5243 6.12388 21.5705 6.73594C19.4019 7.49821 17.8652 8.5495 17.7779 8.61009C17.6601 8.69132 17.5899 8.82474 17.5899 8.96772V13.3811C17.5899 13.6216 17.7851 13.8165 18.0254 13.8165C18.266 13.8165 18.4609 13.622 18.4609 13.3811V9.203C19.0847 8.80642 21.1888 7.55804 23.6909 7.04591C24.0913 7.00702 24.3815 6.93189 24.4444 6.91434C24.4448 6.91434 24.4452 6.91434 24.4456 6.91434C24.4501 6.9128 24.454 6.91203 24.4559 6.91165C24.47 6.9078 24.4829 6.90287 24.4963 6.89755C24.4985 6.89678 24.4998 6.89608 24.5016 6.89525C24.5162 6.88955 24.5298 6.88269 24.5436 6.87539C24.5454 6.87424 24.547 6.87385 24.5489 6.87308C24.5516 6.87155 24.5546 6.86924 24.5569 6.86777C24.5649 6.8636 24.5721 6.85899 24.5795 6.85367C24.5844 6.85022 24.5889 6.84682 24.5935 6.84375C24.6001 6.8392 24.6061 6.8342 24.613 6.82927C24.6179 6.82511 24.6225 6.82088 24.6276 6.81633C24.6329 6.8121 24.6374 6.80717 24.6428 6.80217C24.6477 6.79724 24.6531 6.79186 24.6576 6.78616C24.6618 6.782 24.6656 6.777 24.6694 6.77245C24.6748 6.7663 24.6794 6.76022 24.684 6.75452C24.6875 6.74997 24.6908 6.74536 24.6939 6.74042C24.6985 6.73357 24.7031 6.7271 24.7069 6.72101C24.7099 6.7157 24.7133 6.70993 24.7163 6.70462C24.7198 6.69815 24.7232 6.69206 24.7263 6.68559C24.7297 6.67874 24.7324 6.67188 24.735 6.66541C24.7377 6.6601 24.74 6.65472 24.7427 6.64902C24.7457 6.64062 24.7488 6.63185 24.7507 6.62307C24.7525 6.61891 24.7537 6.61507 24.7548 6.61052C24.7583 6.6002 24.7602 6.58957 24.7625 6.57887C24.7632 6.57618 24.7636 6.57356 24.7643 6.57087C24.7666 6.55985 24.7678 6.54838 24.7689 6.5373C24.7692 6.53461 24.7696 6.53237 24.77 6.52968C24.7705 6.52052 24.7705 6.51174 24.7712 6.5022C24.7712 6.4972 24.7716 6.49265 24.7716 6.48734C24.7712 6.48394 24.7709 6.48048 24.7705 6.47702C24.7692 6.4343 24.7612 6.39087 24.7464 6.3493C24.7434 6.34014 24.7399 6.33136 24.7365 6.32227C24.7357 6.32111 24.735 6.31919 24.7338 6.31765C24.7289 6.3058 24.7236 6.29402 24.7167 6.28293C24.7167 6.28293 24.7167 6.28255 24.7167 6.28217C24.3537 5.63168 23.8461 5.22748 23.2078 5.08105C22.1447 4.83623 21.0523 5.41049 20.6599 5.64846C19.6684 5.51612 18.9368 5.6637 18.3816 5.91538C18.4029 5.7758 18.4189 5.62943 18.4262 5.4773C18.4941 4.18042 17.9594 3.13451 16.8814 2.45232C15.0127 1.26984 14.1821 0.321491 14.1745 0.31278C14.08 0.202988 13.937 0.146939 13.7932 0.164042C13.6495 0.181209 13.5232 0.268517 13.4569 0.397398C13.4283 0.453063 12.7518 1.78729 12.6371 3.46665C12.4816 5.74787 13.4364 7.55227 15.3994 8.68286ZM23.0119 5.92787C23.2067 5.97284 23.3806 6.05791 23.5366 6.18486C23.1724 6.21497 22.7163 6.2062 22.3069 6.0613C22.2226 6.03158 22.1406 6.00448 22.059 5.97777C22.3633 5.89469 22.6981 5.85542 23.0119 5.92787Z" fill="#171717"/>
</svg>
