<svg width="24" height="24" viewBox="0 0 24 24" fill="none" xmlns="http://www.w3.org/2000/svg">
<path d="M5.564 0.332031V3.15203L0 8.73603L1.305 10.02L5.565 5.76003V8.32803L0 13.912L1.305 15.195L5.565 10.935V23.668H7.396V10.932L11.68 15.195L12.984 13.912L7.396 8.32403V5.75603L11.385 9.72503L16.58 14.939V23.668H18.412V14.943L24 9.35503L22.695 8.07203L18.412 12.336V9.76803L24 4.18003L22.695 2.89603L18.412 7.16003V0.332031H16.58V7.15603L12.32 2.89603L11.016 4.18003L16.58 9.76403V12.332L12.984 8.73603L7.396 3.14803V0.332031H5.564Z" fill="#FCFCFC"/>
</svg>
