<svg width="33" height="32" viewBox="0 0 33 32" fill="none" xmlns="http://www.w3.org/2000/svg">
<g clip-path="url(#clip0_42_5501)">
<path opacity="0.959" fill-rule="evenodd" clip-rule="evenodd" d="M0.46875 17.4062C0.46875 16.4479 0.46875 15.4895 0.46875 14.5312C0.824018 11.1129 2.10527 8.09208 4.3125 5.4687C4.65985 5.10034 5.02444 4.75659 5.40625 4.43745C6.19287 4.2261 6.65121 4.51776 6.78125 5.31245C6.7715 5.55103 6.6986 5.76978 6.5625 5.9687C2.98254 9.70302 1.71171 14.1196 2.75 19.2187C3.40727 21.826 4.6781 24.076 6.5625 25.9687C6.98 26.7053 6.80294 27.2366 6.03125 27.5625C5.76635 27.6139 5.51635 27.5722 5.28125 27.4375C2.47956 24.6775 0.875389 21.3338 0.46875 17.4062Z" fill="#171717"/>
<path opacity="0.959" fill-rule="evenodd" clip-rule="evenodd" d="M32.4688 14.5313C32.4688 15.4896 32.4688 16.448 32.4688 17.4063C32.1135 20.8246 30.8323 23.8454 28.625 26.4688C28.2776 26.8372 27.9131 27.1809 27.5312 27.5001C26.7446 27.7114 26.2863 27.4197 26.1562 26.6251C26.166 26.3865 26.2389 26.1677 26.375 25.9688C29.588 22.6638 30.9421 18.7054 30.4375 14.0938C29.9781 10.9251 28.6239 8.21668 26.375 5.9688C25.9976 5.33776 26.1122 4.82734 26.7188 4.43755C27.1028 4.28854 27.4569 4.34062 27.7812 4.5938C30.5041 7.35236 32.0666 10.6649 32.4688 14.5313Z" fill="#171717"/>
<path opacity="0.959" fill-rule="evenodd" clip-rule="evenodd" d="M8.28124 7.21871C9.29086 7.09289 9.71792 7.53039 9.56249 8.53121C9.1458 9.03121 8.72917 9.53121 8.31249 10.0312C6.21262 13.1221 5.83762 16.4138 7.18749 19.9062C7.49917 20.6133 7.87417 21.28 8.31249 21.9062C8.72917 22.4062 9.1458 22.9062 9.56249 23.4062C9.71874 24.4166 9.29167 24.8437 8.28124 24.6875C8.17705 24.625 8.07292 24.5625 7.96874 24.5C4.78203 21.0762 3.77162 17.0866 4.93749 12.5312C5.5515 10.4245 6.66609 8.65358 8.28124 7.21871Z" fill="#171717"/>
<path opacity="0.958" fill-rule="evenodd" clip-rule="evenodd" d="M23.9063 7.21879C24.2922 7.16523 24.6464 7.23817 24.9688 7.43754C27.9016 10.529 28.9954 14.1853 28.25 18.4063C27.7345 20.7609 26.6408 22.7921 24.9688 24.5C24.4922 24.7997 24.0235 24.7893 23.5625 24.4688C23.3529 24.1459 23.2904 23.7918 23.375 23.4063C24.0061 22.692 24.5895 21.942 25.125 21.1563C27 17.698 27 14.2396 25.125 10.7813C24.9583 10.5313 24.7917 10.2813 24.625 10.0313C24.2083 9.53129 23.7917 9.03129 23.375 8.53129C23.2118 7.9426 23.3889 7.5051 23.9063 7.21879Z" fill="#171717"/>
<path opacity="0.956" fill-rule="evenodd" clip-rule="evenodd" d="M11.2188 10.0312C12.2708 10.0312 12.6353 10.5312 12.3125 11.5312C10.4743 13.4301 9.97426 15.6384 10.8125 18.1562C11.1306 18.9384 11.5889 19.6259 12.1875 20.2188C12.6528 20.9258 12.5174 21.4779 11.7813 21.875C11.2861 21.9558 10.8799 21.7995 10.5625 21.4062C8.32189 18.7018 7.88439 15.7227 9.25001 12.4688C9.66632 11.6465 10.1976 10.9069 10.8438 10.25C10.9829 10.1912 11.1079 10.1182 11.2188 10.0312Z" fill="#171717"/>
<path opacity="0.956" fill-rule="evenodd" clip-rule="evenodd" d="M21.1562 10.0312C21.4967 9.9891 21.8092 10.062 22.0937 10.25C24.3681 12.6922 25.0036 15.5152 24 18.7187C23.5766 19.8475 22.9411 20.837 22.0937 21.6875C21.3546 22.1034 20.8233 21.9264 20.5 21.1562C20.4428 20.8068 20.5262 20.4943 20.75 20.2187C22.2771 18.6367 22.8187 16.7617 22.375 14.5937C22.0964 13.483 21.5548 12.5247 20.75 11.7187C20.291 11.0036 20.4264 10.4411 21.1562 10.0312Z" fill="#171717"/>
<path opacity="0.98" fill-rule="evenodd" clip-rule="evenodd" d="M16.1562 11.9688C18.7579 12.0497 20.1954 13.383 20.4688 15.9688C20.2398 18.406 18.9065 19.7393 16.4688 19.9688C14.0312 19.7396 12.6979 18.4062 12.4688 15.9688C12.664 13.6697 13.8931 12.3364 16.1562 11.9688Z" fill="#171717"/>
</g>
<defs>
<clipPath id="clip0_42_5501">
<rect width="32" height="32" fill="white" transform="translate(0.5)"/>
</clipPath>
</defs>
</svg>
