<svg width="33" height="32" viewBox="0 0 33 32" fill="none" xmlns="http://www.w3.org/2000/svg">
<path opacity="0.948" fill-rule="evenodd" clip-rule="evenodd" d="M1.59375 -0.03125C11.5104 -0.03125 21.4271 -0.03125 31.3438 -0.03125C31.8646 0.197917 32.2396 0.572917 32.4688 1.09375C32.4688 11.0104 32.4688 20.9271 32.4688 30.8438C32.2396 31.3646 31.8646 31.7396 31.3438 31.9688C21.4271 31.9688 11.5104 31.9688 1.59375 31.9688C1.07292 31.7396 0.697917 31.3646 0.46875 30.8438C0.46875 20.9271 0.46875 11.0104 0.46875 1.09375C0.697917 0.572917 1.07292 0.197917 1.59375 -0.03125ZM1.84375 1.09375C3.26057 1.08334 4.67724 1.09375 6.09375 1.125C5.75759 1.65023 5.36176 2.12939 4.90625 2.5625C4.16639 3.02613 3.43722 3.50529 2.71875 4C2.33529 4.32088 1.97071 4.66463 1.625 5.03125C1.58333 3.80208 1.58333 2.57292 1.625 1.34375C1.71098 1.26843 1.78389 1.1851 1.84375 1.09375ZM7.34375 1.09375C13.4271 1.08333 19.5104 1.09375 25.5938 1.125C25.9182 1.91953 26.3974 2.60703 27.0312 3.1875C27.7279 3.73382 28.457 4.23382 29.2188 4.6875C29.6433 5.00778 30.0496 5.35153 30.4375 5.71875C30.7533 6.09701 31.0449 6.49281 31.3125 6.90625C31.3542 12.4062 31.3542 17.9062 31.3125 23.4062C30.2563 25.5242 28.5792 26.8888 26.2812 27.5C25.7241 27.6489 25.1616 27.7739 24.5938 27.875C23.382 28.0421 22.1737 28.2296 20.9688 28.4375C19.5644 28.6981 18.3873 29.3544 17.4375 30.4062C17.3521 30.5231 17.2792 30.6481 17.2188 30.7812C14.9274 30.8542 12.6357 30.8646 10.3438 30.8125C7.44012 30.3046 5.72136 28.6068 5.1875 25.7188C4.85741 25.4563 4.54491 25.4771 4.25 25.7812C4.31382 27.9724 5.28257 29.6496 7.15625 30.8125C5.38542 30.8542 3.61458 30.8542 1.84375 30.8125C1.77083 30.7396 1.69792 30.6667 1.625 30.5938C1.58333 22.6979 1.58333 14.8021 1.625 6.90625C1.91575 6.41894 2.2595 5.971 2.65625 5.5625C3.56231 4.8023 4.52064 4.1148 5.53125 3.5C6.36307 2.86653 6.96725 2.06445 7.34375 1.09375ZM26.8438 1.15625C28.2498 1.08356 29.6664 1.07315 31.0938 1.125C31.1667 1.19792 31.2396 1.27083 31.3125 1.34375C31.3542 2.57292 31.3542 3.80208 31.3125 5.03125C30.9668 4.66463 30.6022 4.32088 30.2188 4C29.5002 3.50529 28.7711 3.02613 28.0312 2.5625C27.5823 2.12986 27.1864 1.66111 26.8438 1.15625ZM14.5938 5.34375C17.6339 5.19075 20.5714 5.6595 23.4062 6.75C26.9209 8.3195 28.6918 11.0382 28.7188 14.9062C28.6114 19.1325 26.5697 21.9554 22.5938 23.375C21.0121 23.9164 19.3871 24.2497 17.7188 24.375C16.6365 24.4414 15.5531 24.4831 14.4688 24.5C14.3958 24.5729 14.3229 24.6458 14.25 24.7188C13.3301 26.7964 11.7781 27.5152 9.59375 26.875C8.2575 26.2245 7.53875 25.1516 7.4375 23.6562C7.41669 22.5104 7.39581 21.3646 7.375 20.2188C5.43066 16.9093 5.34732 13.5551 7.125 10.1562C8.85388 7.37988 11.3434 5.77569 14.5938 5.34375ZM14.7812 7.46875C16.6329 7.4165 18.4662 7.57275 20.2812 7.9375C25.5586 9.21044 27.4858 12.4708 26.0625 17.7188C25.4376 19.1145 24.448 20.1666 23.0938 20.875C21.7283 21.5341 20.2908 21.9508 18.7812 22.125C16.9926 22.3582 15.2009 22.3999 13.4062 22.25C12.9222 22.4215 12.5784 22.7444 12.375 23.2188C12.3719 24.0076 12.0282 24.5804 11.3438 24.9375C10.5309 25.1061 9.958 24.8041 9.625 24.0312C9.6205 22.5292 9.57881 21.0292 9.5 19.5312C9.00531 18.7919 8.6095 18.0002 8.3125 17.1562C7.42775 13.5841 8.47988 10.7404 11.4688 8.625C12.4944 7.995 13.5986 7.60956 14.7812 7.46875ZM14.9062 9.59375C16.6959 9.54644 18.4667 9.70269 20.2188 10.0625C23.7974 11.0421 25.0787 13.3233 24.0625 16.9062C23.6425 17.8679 22.9654 18.5866 22.0312 19.0625C20.8647 19.6198 19.6356 19.9531 18.3438 20.0625C17.0737 20.2101 15.8029 20.231 14.5312 20.125C12.194 19.6003 10.7461 18.1731 10.1875 15.8438C9.88587 13.7915 10.5212 12.0936 12.0938 10.75C12.9354 10.1205 13.8729 9.73506 14.9062 9.59375ZM15.0938 11.7188C16.4769 11.6995 17.8519 11.7933 19.2188 12C19.9336 12.1271 20.6003 12.3771 21.2188 12.75C22.1021 13.4405 22.4458 14.3468 22.25 15.4688C22.0501 16.3177 21.5604 16.9324 20.7812 17.3125C20.0024 17.6478 19.1899 17.8562 18.3438 17.9375C17.3039 18.0359 16.2622 18.0776 15.2188 18.0625C13.3973 17.7931 12.3973 16.7409 12.2188 14.9062C12.394 13.1272 13.3523 12.0647 15.0938 11.7188ZM15.8438 13.8438C16.4096 13.8468 16.9512 13.9613 17.4688 14.1875C18.1304 14.5519 18.1929 14.9894 17.6562 15.5C17.1174 15.7883 16.5445 15.9446 15.9375 15.9688C15.0216 15.7618 14.7299 15.2201 15.0625 14.3438C15.2736 14.0879 15.5341 13.9212 15.8438 13.8438ZM31.2812 25.5312C31.354 27.2081 31.3644 28.8956 31.3125 30.5938C31.2396 30.6667 31.1667 30.7396 31.0938 30.8125C26.9479 30.8542 22.8021 30.8542 18.6562 30.8125C19.2974 30.2209 20.0474 29.8251 20.9062 29.625C22.509 29.3491 24.1132 29.0783 25.7188 28.8125C27.2035 28.5177 28.5577 27.9343 29.7812 27.0625C30.3358 26.6017 30.8358 26.0913 31.2812 25.5312Z" fill="#171717"/>
</svg>
