<svg width="32" height="32" viewBox="0 0 32 32" fill="none" xmlns="http://www.w3.org/2000/svg">
<path d="M28 7H16V10H29.75C29.3 8.95 28.7 7.9 28 7Z" fill="#ED4C5C"/>
<path d="M30.7 19C30.9 18.05 31 17.05 31 16H1C1 17.05 1.1 18.05 1.3 19H30.7Z" fill="#F9F9F9"/>
<path d="M16 1V4H25C22.5 2.1 19.4 1 16 1Z" fill="#ED4C5C"/>
<path d="M16 7H28C27.15 5.85 26.15 4.85 25 4H16V7ZM29.75 10H16V13H30.7C30.5 11.95 30.15 10.95 29.75 10Z" fill="#F9F9F9"/>
<path d="M16 13V16H31C31 14.95 30.9 13.95 30.7 13H16ZM2.24999 22H29.75C30.15 21.05 30.5 20.05 30.7 19H1.29999C1.49999 20.05 1.84999 21.05 2.24999 22Z" fill="#ED4C5C"/>
<path d="M4 25H28C28.7 24.1 29.3 23.05 29.75 22H2.25C2.7 23.05 3.3 24.1 4 25Z" fill="#F9F9F9"/>
<path d="M4 25C4.85 26.15 5.85 27.15 7 28H25C26.15 27.15 27.15 26.15 28 25H4Z" fill="#ED4C5C"/>
<path d="M7 28C9.5 29.9 12.6 31 16 31C19.4 31 22.5 29.9 25 28H7Z" fill="#F9F9F9"/>
<path d="M16 1C7.7 1 1 7.7 1 16H16V1Z" fill="#2A5F9E"/>
<path d="M9.95 12.8C8.45 12.8 7.2 11.55 7.2 10C7.2 8.45 8.45 7.2 9.95 7.2C10.55 7.2 11.05 7.4 11.5 7.7C10.85 6.95 9.95 6.5 8.9 6.5C7 6.5 5.5 8.05 5.5 10C5.5 11.95 7.05 13.5 8.9 13.5C9.95 13.5 10.85 13.05 11.5 12.3C11.05 12.6 10.5 12.8 9.95 12.8ZM13 9.4L13.35 8.5L13.25 9.45L13.95 8.8L13.45 9.65L14.35 9.35L13.55 9.85L14.5 10L13.55 10.15L14.35 10.65L13.45 10.35L13.95 11.2L13.25 10.55L13.35 11.5L13 10.6L12.65 11.5L12.75 10.55L12.05 11.2L12.55 10.35L11.65 10.65L12.45 10.15L11.5 10L12.45 9.85L11.65 9.35L12.55 9.65L12.05 8.8L12.75 9.45L12.65 8.5L13 9.4Z" fill="#FFE62E"/>
</svg>
