<svg width="44" height="40" viewBox="0 0 44 40" fill="none" xmlns="http://www.w3.org/2000/svg">
<rect width="44" height="40" rx="20" fill="#FCFCFC"/>
<path d="M17.1634 27V25.2869L21.7081 20.8317C22.1428 20.3928 22.505 20.0028 22.7947 19.6619C23.0845 19.321 23.3018 18.9908 23.4467 18.6712C23.5916 18.3516 23.6641 18.0107 23.6641 17.6484C23.6641 17.2351 23.5703 16.8814 23.3828 16.5874C23.1953 16.2891 22.9375 16.0589 22.6094 15.897C22.2812 15.7351 21.9084 15.6541 21.4908 15.6541C21.0604 15.6541 20.6832 15.7436 20.3594 15.9226C20.0355 16.0973 19.7841 16.3466 19.6051 16.6705C19.4304 16.9943 19.343 17.38 19.343 17.8274H17.0866C17.0866 16.9964 17.2763 16.2741 17.6555 15.6605C18.0348 15.0469 18.5568 14.5717 19.2216 14.2351C19.8906 13.8984 20.6577 13.7301 21.5227 13.7301C22.4006 13.7301 23.1719 13.8942 23.8366 14.2223C24.5014 14.5504 25.017 15 25.3835 15.571C25.7543 16.142 25.9396 16.794 25.9396 17.527C25.9396 18.017 25.8459 18.4986 25.6584 18.9716C25.4709 19.4446 25.1406 19.9687 24.6676 20.544C24.1989 21.1193 23.5405 21.8161 22.6925 22.6342L20.4361 24.929V25.0185H26.1378V27H17.1634Z" fill="#171717"/>
</svg>
