<svg width="44" height="40" viewBox="0 0 44 40" fill="none" xmlns="http://www.w3.org/2000/svg">
<rect width="44" height="40" rx="20" fill="#FCFCFC"/>
<path d="M21.8615 27.179C20.9411 27.179 20.1229 27.0213 19.407 26.706C18.6953 26.3906 18.1328 25.9517 17.7195 25.3892C17.3061 24.8267 17.0866 24.1768 17.0611 23.4396H19.4645C19.4858 23.7933 19.603 24.1023 19.8161 24.3665C20.0291 24.6264 20.3125 24.8288 20.6662 24.9737C21.0199 25.1186 21.4162 25.1911 21.8551 25.1911C22.3239 25.1911 22.7393 25.1101 23.1016 24.9482C23.4638 24.782 23.7472 24.5518 23.9517 24.2578C24.1563 23.9638 24.2564 23.625 24.2521 23.2415C24.2564 22.8452 24.1541 22.4957 23.9453 22.1932C23.7365 21.8906 23.4339 21.6541 23.0376 21.4837C22.6456 21.3132 22.1726 21.228 21.6186 21.228H20.4616V19.3999H21.6186C22.0746 19.3999 22.473 19.321 22.8139 19.1634C23.1591 19.0057 23.4297 18.7841 23.6257 18.4986C23.8217 18.2088 23.9176 17.8743 23.9134 17.495C23.9176 17.1243 23.8345 16.8026 23.6641 16.5298C23.4979 16.2528 23.2614 16.0376 22.9545 15.8842C22.652 15.7308 22.2962 15.6541 21.8871 15.6541C21.4865 15.6541 21.1158 15.7266 20.7749 15.8714C20.4339 16.0163 20.1591 16.223 19.9503 16.4915C19.7415 16.7557 19.6307 17.071 19.6179 17.4375H17.3359C17.353 16.7045 17.5639 16.0611 17.9688 15.5071C18.3778 14.9489 18.9233 14.5142 19.6051 14.2031C20.2869 13.8878 21.0518 13.7301 21.8999 13.7301C22.7734 13.7301 23.532 13.8942 24.1754 14.2223C24.8232 14.5462 25.3239 14.983 25.6776 15.5327C26.0313 16.0824 26.2081 16.6896 26.2081 17.3544C26.2124 18.0916 25.995 18.7095 25.5561 19.2081C25.1214 19.7067 24.5504 20.0327 23.843 20.1861V20.2884C24.7635 20.4162 25.4688 20.7571 25.9588 21.3111C26.4531 21.8608 26.6982 22.5447 26.6939 23.3629C26.6939 24.0959 26.4851 24.7521 26.0675 25.3317C25.6541 25.907 25.0831 26.3587 24.3544 26.6868C23.63 27.0149 22.799 27.179 21.8615 27.179Z" fill="#171717"/>
</svg>
