<svg width="44" height="40" viewBox="0 0 44 40" fill="none" xmlns="http://www.w3.org/2000/svg">
<rect width="44" height="40" rx="20" fill="#FCFCFC"/>
<path d="M21.7145 27.179C20.8622 27.179 20.0994 27.0192 19.4261 26.6996C18.7528 26.3757 18.218 25.9325 17.8217 25.37C17.4297 24.8075 17.2209 24.1641 17.1953 23.4396H19.4964C19.5391 23.9766 19.7713 24.4155 20.1932 24.7564C20.6151 25.093 21.1222 25.2614 21.7145 25.2614C22.179 25.2614 22.5923 25.1548 22.9545 24.9418C23.3168 24.7287 23.6023 24.4325 23.8111 24.0533C24.0199 23.674 24.1222 23.2415 24.1179 22.7557C24.1222 22.2614 24.0178 21.8224 23.8047 21.4389C23.5916 21.0554 23.2997 20.755 22.929 20.5376C22.5582 20.3161 22.1321 20.2053 21.6506 20.2053C21.2585 20.201 20.8729 20.2734 20.4936 20.4226C20.1143 20.5717 19.8139 20.7678 19.5923 21.0107L17.451 20.6591L18.1349 13.9091H25.7287V15.8906H20.0973L19.7202 19.3615H19.7969C20.0398 19.076 20.3828 18.8395 20.826 18.652C21.2692 18.4602 21.755 18.3643 22.2834 18.3643C23.076 18.3643 23.7834 18.5518 24.4055 18.9268C25.0277 19.2976 25.5178 19.8089 25.8757 20.4609C26.2337 21.1129 26.4126 21.8587 26.4126 22.6982C26.4126 23.5632 26.2124 24.3345 25.8118 25.0121C25.4155 25.6854 24.8636 26.2159 24.1562 26.6037C23.4531 26.9872 22.6392 27.179 21.7145 27.179Z" fill="#171717"/>
</svg>
