<svg width="24" height="24" viewBox="0 0 24 24" fill="none" xmlns="http://www.w3.org/2000/svg">
<path d="M15.7796 6.44209L15.0278 5.09172L16.7906 5.17234L15.9623 3.91684L17.5736 3.94459L16.7006 2.83272L18.375 2.97372L17.4454 1.81872L18.8801 1.40547C14.463 -1.07328 12.1376 3.95022 11.8781 8.60472C10.5341 3.89097 6.57 -0.948407 2.58225 3.27184L4.13775 3.16347L3.52425 4.61209L5.166 3.88122L4.5975 5.26759L6.20813 4.66834L5.8725 5.71384C3.6465 5.00172 1.6065 5.53384 0.75 8.44684L2.08275 7.73209L2.2035 9.30672L3.32812 7.98634L3.45975 9.48484L4.61737 8.29834L4.88063 9.87747L6.111 8.54022L6.52425 10.2555L7.63425 9.09372L7.90313 10.1017C4.80975 10.5881 2.52487 12.258 4.50225 15.4473L4.78163 14.2331L5.87887 15.1391L5.64525 13.6713L6.70013 14.5237L6.57187 13.119L7.75312 13.9451L7.5675 12.405L8.92087 13.2296L8.784 11.868L9.1815 12.0982C9.33 12.5666 9.63037 12.9532 10.0448 13.1872C10.1636 13.2547 10.2915 13.3053 10.4231 13.3451L12.2201 23.25H12.7916L12.7267 22.893L15.1508 22.443L12.5651 22.0035L12.2749 20.4022L14.661 19.9582L12.1159 19.5273L11.8177 17.8845L14.0212 17.4746L11.6711 17.076L11.3636 15.381L13.4606 14.991L11.2241 14.6115L11.0089 13.4257C11.3057 13.4188 11.5977 13.3493 11.8658 13.2217C12.012 13.374 12.1744 13.5037 12.3544 13.5975L11.5417 13.7486L13.8056 14.133L14.3302 15.8756L12.4125 16.2326L14.5466 16.5941L15.0765 18.3547L13.1325 18.7162L15.2959 19.0833L15.8186 20.8196L13.7726 21.2002L16.0496 21.5865L16.5506 23.25H17.1379L14.178 13.4175C14.4636 13.1606 14.6396 12.8037 14.6696 12.4207C14.6819 12.2388 14.6646 12.056 14.6186 11.8796L15.4245 11.373L15.2276 12.6626L16.5034 11.8256L16.2536 13.2873L17.3719 12.4552L17.1821 13.7853L18.1871 12.9348L17.898 14.3295L18.9439 13.4272L19.1351 14.5597C21.1639 11.3625 18.9705 9.89397 16.0365 9.63972L16.365 8.50422L17.4746 9.57634L17.8886 7.99272L19.119 9.22684L19.3819 7.76997L20.5391 8.86497L20.6719 7.48197L21.7954 8.69997L21.9161 7.24684L23.25 7.90722C22.095 4.28397 18.7935 4.64659 15.7796 6.44209ZM7.27087 6.30597C6.98841 6.15775 6.69867 6.02384 6.40275 5.90472L7.47262 5.47422L7.27087 6.30597ZM8.51362 7.05559C8.37075 6.95809 8.2275 6.86434 8.08387 6.77397L8.61862 6.56959L8.51362 7.05559ZM8.787 9.99634L9.0405 9.73872L9.138 9.97047C9.0209 9.97773 8.9039 9.98636 8.787 9.99634ZM15.0596 9.60597C15.0034 9.50359 14.9359 9.40722 14.8605 9.31572L14.9591 9.09972L15.5006 9.60747C15.3551 9.60222 15.207 9.60559 15.0596 9.60597ZM14.6404 7.19809L14.274 6.49947L15.6248 6.53584C15.2879 6.74331 14.9595 6.96424 14.6404 7.19809Z" fill="#FCFCFC"/>
</svg>
