<svg width="24" height="19" viewBox="0 0 24 19" fill="none" xmlns="http://www.w3.org/2000/svg">
<path d="M16.1648 6.7179C16.1648 9.0769 14.2988 10.9891 11.997 10.9891C9.69513 10.9891 7.82916 9.07696 7.82916 6.7179C7.82916 4.35913 9.69513 2.44666 11.997 2.44666C14.2988 2.44666 16.1648 4.35907 16.1648 6.7179Z" fill="#FCFCFC"/>
<path d="M18.7213 15.3775C18.7213 17.1648 15.7107 18.6134 11.997 18.6134C8.28318 18.6134 5.27258 17.1648 5.27258 15.3775C5.27258 13.5904 8.28318 12.1417 11.997 12.1417C15.7107 12.1417 18.7213 13.5904 18.7213 15.3775Z" fill="#FCFCFC"/>
<path d="M6.72398 8.5429C6.74 8.5429 6.75555 8.54039 6.7718 8.54039C6.58076 7.96819 6.47506 7.35594 6.47506 6.71835C6.47506 4.36479 7.88553 2.34373 9.88516 1.49219C9.12053 0.580258 7.98967 0.000244141 6.72445 0.000244141C4.42261 0.000244141 2.55664 1.91266 2.55664 4.27149C2.55618 6.63049 4.4222 8.54297 6.72398 8.54297V8.5429Z" fill="#FCFCFC"/>
<path d="M17.5177 6.71793C17.5177 7.35581 17.412 7.96781 17.221 8.53997C17.237 8.54043 17.2526 8.54249 17.2688 8.54249C19.5706 8.54249 21.4366 6.63007 21.4366 4.27124C21.4366 1.91224 19.5706 0 17.2688 0C16.0036 0 14.8723 0.579745 14.1081 1.49194C16.1072 2.34349 17.5177 4.36437 17.5177 6.71793L17.5177 6.71793Z" fill="#FCFCFC"/>
<path d="M17.2688 9.69507C17.0691 9.69507 16.8726 9.70125 16.677 9.70925C16.3407 10.2581 15.9163 10.7452 15.4225 11.1472C18.2444 11.8441 20.0738 13.4127 20.0738 15.3779C20.0738 15.5479 20.0598 15.7149 20.0328 15.8785C22.3662 15.3708 23.9927 14.2434 23.9927 12.931C23.9931 11.144 20.9825 9.69507 17.2689 9.69507L17.2688 9.69507Z" fill="#FCFCFC"/>
<path d="M8.57066 11.147C8.07694 10.7452 7.65252 10.2583 7.31622 9.70901C7.12106 9.70077 6.92408 9.69482 6.72437 9.69482C3.01071 9.69482 0 11.1437 0 12.9308C0 14.2431 1.62648 15.3706 3.95983 15.8782C3.93306 15.7147 3.91888 15.5474 3.91888 15.3777C3.91933 13.4126 5.74894 11.8438 8.57059 11.1469L8.57066 11.147Z" fill="#FCFCFC"/>
</svg>
