<svg width="24" height="30" viewBox="0 0 24 30" fill="none" xmlns="http://www.w3.org/2000/svg">
<path d="M18 7.5155V12.7578H23.2978L18 7.5155Z" fill="#FCFCFC"/>
<path d="M17.1381 14.495C16.6592 14.495 16.2765 14.116 16.2765 13.6425L16.2762 6.85303H13.2123V7.01087C13.2123 12.2847 7.46754 15.3473 6.79734 15.6947C6.47828 15.8526 6.09526 15.9474 5.71221 15.9474C5.52084 15.9474 5.32919 15.9159 5.13782 15.8843L5.13808 29.2105C5.13808 29.6525 5.48925 30 5.93598 30H23.2021C23.6488 30 24 29.6525 24 29.2105V14.4947L17.1381 14.495ZM19.5636 27.0003H9.51027C9.03143 27.0003 8.64868 26.6213 8.64868 26.1478C8.64868 25.674 9.0317 25.2953 9.51027 25.2953H19.5636C20.0424 25.2953 20.4252 25.6743 20.4252 26.1478C20.457 26.6213 20.074 27.0003 19.5636 27.0003ZM19.5636 22.9898H9.51027C9.03143 22.9898 8.64868 22.6108 8.64868 22.1373C8.64868 21.6635 9.0317 21.2848 9.51027 21.2848H19.5636C20.0424 21.2848 20.4252 21.6638 20.4252 22.1373C20.457 22.6108 20.074 22.9898 19.5636 22.9898ZM19.5636 19.0108H9.51027C9.03143 19.0108 8.64868 18.6318 8.64868 18.1583C8.64868 17.6845 9.0317 17.3058 9.51027 17.3058H19.5636C20.0424 17.3058 20.4252 17.6848 20.4252 18.1583C20.4252 18.6321 20.074 19.0108 19.5636 19.0108Z" fill="#FCFCFC"/>
<path d="M5.71266 14.2102C5.80848 14.2102 5.90404 14.1787 5.99986 14.1472C6.22335 14.0524 11.4253 11.3367 11.4253 7.01036V3.41039C11.4253 3.0947 11.17 2.84204 10.8828 2.81052C7.34034 2.46306 6.3189 0.44202 6.25522 0.347467C6.15939 0.126326 5.93616 0 5.71267 0C5.48918 0 5.26594 0.126326 5.17012 0.347467C5.13827 0.44228 4.085 2.43178 0.542548 2.81052C0.223494 2.84204 0 3.0947 0 3.41039V7.01036C0 11.3365 5.23409 14.0212 5.45729 14.1472C5.52125 14.2105 5.61681 14.2105 5.71263 14.2105L5.71266 14.2102ZM4.43595 9.2842L2.99972 7.86309C2.64856 7.51563 2.64856 6.97877 2.99972 6.63156C3.35089 6.2841 3.89345 6.2841 4.24436 6.63156L5.07407 7.45254L7.21237 5.33676C7.56354 4.98929 8.1061 4.98929 8.45701 5.33676C8.80817 5.68422 8.80817 6.22108 8.45701 6.56828L5.71239 9.284C5.55287 9.44184 5.32937 9.53666 5.10614 9.53666C4.81894 9.53666 4.59571 9.4421 4.43592 9.28426L4.43595 9.2842Z" fill="#FCFCFC"/>
</svg>
