<svg width="33" height="32" viewBox="0 0 33 32" fill="none" xmlns="http://www.w3.org/2000/svg">
<path fill-rule="evenodd" clip-rule="evenodd" d="M14.9744 0.000157232H18.0259L18.4597 3.16283C18.5055 3.49738 18.7566 3.76693 19.0868 3.83688C20.6019 4.15659 22.0123 4.75405 23.2704 5.57164C23.5531 5.75542 23.9206 5.74189 24.1895 5.53832L26.7343 3.6082L28.8924 5.76662L26.9625 8.31171C26.7587 8.58028 26.7455 8.94781 26.9289 9.23057C27.7463 10.4889 28.3441 11.8997 28.6638 13.4111C28.7337 13.741 29.0025 13.9918 29.3367 14.0383L32.5 14.4758V17.528L29.3377 17.9618C29.0029 18.0077 28.7334 18.2588 28.6638 18.5894C28.3441 20.1047 27.7467 21.5152 26.9292 22.7735L26.9289 22.7732C26.7452 23.0563 26.7587 23.4238 26.9626 23.6927L28.8924 26.2378L26.7343 28.3962L24.1895 26.4661V26.4658C23.9207 26.2622 23.5532 26.249 23.2704 26.4325C22.0132 27.2494 20.6026 27.8439 19.0851 28.1676L19.0848 28.1679C18.7556 28.2382 18.5055 28.5074 18.4597 28.8413L18.0259 32H14.9744L14.5406 28.8413H14.5403C14.4944 28.5077 14.2447 28.2388 13.9158 28.1682C13.324 28.0415 12.7487 27.8736 12.1912 27.6677L14.8827 24.5822C17.6953 25.0689 20.6897 24.1398 22.7376 21.8709C24.8268 19.5564 25.4272 16.4039 24.5883 13.6166L24.588 13.6163C24.5048 13.3398 24.2792 13.1297 23.9975 13.0667C23.7158 13.0033 23.4218 13.0967 23.2285 13.3111L18.8615 18.1499L16.7769 17.9384L14.8734 17.7454L14.4875 15.873V15.8727L14.0646 13.8179L18.4319 8.97849L18.4313 8.97816C18.6246 8.76403 18.6876 8.46214 18.5959 8.18863C18.5045 7.91479 18.2726 7.71155 17.9892 7.65678C15.1271 7.10448 12.0546 8.02795 9.96572 10.3417V10.3421C7.91779 12.6113 7.30189 15.686 8.07183 18.4352L5.29914 21.4046C4.87128 20.52 4.54502 19.5767 4.33589 18.5886C4.26629 18.2583 3.99644 18.0076 3.66226 17.9617L0.5 17.5279V14.4757L3.66328 14.0382C3.99646 13.992 4.26532 13.7422 4.33558 13.413C4.65953 11.8989 5.25398 10.4878 6.07079 9.23042C6.25454 8.94766 6.24101 8.58013 6.03748 8.31156L4.1076 5.76647L6.26575 3.60804L8.8105 5.53817C9.07903 5.74174 9.44652 5.75526 9.72958 5.57149C10.9877 4.75392 12.3981 4.15641 13.9132 3.83673C14.2434 3.76678 14.4945 3.49723 14.5403 3.16268L14.9741 0L14.9744 0.000157232Z" fill="#171717"/>
</svg>
