<svg width="32" height="32" viewBox="0 0 32 32" fill="none" xmlns="http://www.w3.org/2000/svg">
<path d="M16 31C24.3 31 31 24.3 31 16H1C1 24.3 7.7 31 16 31Z" fill="#F9F9F9"/>
<path d="M16 1C7.7 1 1 7.7 1 16H31C31 7.7 24.3 1 16 1Z" fill="#ED4C5C"/>
<path d="M10.6 8.75L10 8.25H10.75L11 7.5L11.25 8.25H12L11.4 8.75L11.6 9.5L11 9.05L10.4 9.5L10.6 8.75ZM14.6 8.75L14 8.25H14.75L15 7.5L15.25 8.25H16L15.4 8.75L15.6 9.5L15 9.05L14.4 9.5L14.6 8.75ZM11.1 11.25L10.5 10.75H11.25L11.5 10L11.75 10.75H12.5L11.9 11.25L12.1 12L11.5 11.55L10.9 12L11.1 11.25ZM14.1 11.25L13.5 10.75H14.25L14.5 10L14.75 10.75H15.5L14.9 11.25L15.1 12L14.5 11.55L13.9 12L14.1 11.25ZM12.6 7.25L12 6.75H12.75L13 6L13.25 6.75H14L13.4 7.25L13.6 8L13 7.55L12.4 8L12.6 7.25Z" fill="#F9F9F9"/>
<path d="M12.2 14C9.8 14 7.9 11.95 7.9 9.45C7.9 6.95 9.85 4.9 12.2 4.9C12.4 4.9 12.55 4.9 12.7 4.95C12.1 4.65 11.45 4.5 10.75 4.5C8.15 4.5 6 6.75 6 9.5C6 12.25 8.15 14.5 10.75 14.5C11.55 14.5 12.35 14.3 13 13.9C12.75 13.95 12.5 14 12.2 14Z" fill="#F9F9F9"/>
</svg>
