<svg width="24" height="24" viewBox="0 0 24 24" fill="none" xmlns="http://www.w3.org/2000/svg">
<path d="M12.9473 16.8858C12.3796 17.0913 11.7584 17.1892 11.1341 17.1718H10.8691C10.2434 17.1903 9.62112 17.0924 9.05254 16.8858V22.0698C8.79458 22.3137 8.61421 22.6024 8.52627 22.912C8.48901 23.2836 8.94386 24 10.8692 24H11.1341C13.0594 24 13.5111 23.2836 13.477 22.912C13.3882 22.6019 13.2067 22.3133 12.9474 22.0698L12.9473 16.8858Z" fill="#FCFCFC"/>
<path d="M12.7573 0C12.4179 0 11.6333 0.414357 11.0018 0.689804C10.0613 1.10152 9.05267 0.748686 9.05267 1.22457C9.05267 1.70024 9.92542 2.05856 10.988 2.05856C12.0509 2.05856 12.9338 0.63356 12.9338 0.165618C12.9475 0.0480814 12.8761 6.02988e-06 12.7573 6.02988e-06L12.7573 0Z" fill="#FCFCFC"/>
<path d="M14.6588 12.6863C18.7334 12.6863 18.6623 9.72397 24 6.1416C15.0632 8.05306 14.2171 11.3042 14.0816 12.3628C13.9458 12.4964 13.7794 12.6649 13.5993 12.8548L13.4567 13.0045C13.2837 13.1917 13.1173 13.3922 12.9473 13.5873L12.9476 9.65719C12.3795 9.86536 11.757 9.96438 11.1307 9.94585H10.8691H10.8693C10.2434 9.96394 9.62074 9.86514 9.05273 9.65719V14.841C8.79562 15.0853 8.61524 15.3738 8.52646 15.6831C8.48921 16.0547 8.9407 16.7712 10.8694 16.7712H11.1343C13.0596 16.7712 13.5113 16.0547 13.4772 15.6831C13.3876 15.3735 13.2061 15.0849 12.9476 14.841V14.3946C13.0941 14.1554 13.2643 13.9256 13.4568 13.7075C13.6332 13.5015 13.8304 13.2823 14.034 13.0658C14.1598 12.9348 14.2886 12.7985 14.4144 12.6781L14.6588 12.6863Z" fill="#FCFCFC"/>
<path d="M9.05253 7.6116C8.79485 7.85659 8.61448 8.14614 8.52626 8.45642C8.48537 8.82271 8.95058 9.54445 10.8692 9.54445H11.1307C13.0594 9.54445 13.5078 8.82534 13.4736 8.45642C13.3868 8.14571 13.2062 7.85593 12.9474 7.6116V1.31308C12.5161 1.90121 11.8369 2.45999 10.9879 2.45999C10.2897 2.48248 9.60239 2.31754 9.03882 1.99204V6.41681C8.7789 5.98591 8.45289 5.58192 8.06778 5.21367C7.81654 4.14439 6.6111 1.83177 0 0.419983C4.37346 3.36087 4.31911 5.78041 7.65048 5.78041H7.96641C8.05799 5.88207 8.1633 6.00776 8.27534 6.16015C8.35684 6.26975 8.4417 6.39015 8.52993 6.52379C8.72683 6.8259 8.89684 7.13862 9.03912 7.45945L9.05253 7.6116Z" fill="#FCFCFC"/>
</svg>
