<svg width="32" height="32" viewBox="0 0 32 32" fill="none" xmlns="http://www.w3.org/2000/svg">
<path d="M26.2 5C23.5 2.5 19.95 1 16 1C12.05 1 8.5 2.5 5.8 5H26.2ZM5.8 27C8.5 29.5 12.05 31 16 31C19.95 31 23.5 29.5 26.2 27H5.8Z" fill="#ED4C5C"/>
<path d="M1 16C1 18.15 1.45 20.15 2.25 22H29.75C30.55 20.15 31 18.15 31 16C31 13.85 30.55 11.85 29.75 10H2.25C1.45 11.85 1 13.85 1 16Z" fill="#2A5F9E"/>
<path d="M5.8 27H26.15C27.65 25.6 28.9 23.9 29.7 22H2.2C3.1 23.9 4.3 25.6 5.8 27ZM26.2 5H5.8C4.3 6.4 3.05 8.1 2.25 10H29.75C28.9 8.1 27.7 6.4 26.2 5Z" fill="#F9F9F9"/>
</svg>
